# xmcd
#
# Track frame offsets:
#	150
#	23838
#	46584
#	66966
#	82194
#	97673
#	113351
#	131463
#	151781
#	166407
#	181167
#	197690
#	209191
#	234172
#	246953
#	266309
#	282908
#	299504
#	313268
#
# Disc length: 4343
#
# Revision: 1
# Processed by: cddbd v1.5.1PL0 Copyright (c) Steve Scherf et al.
# Submitted via: EasyCDDAExtractor 4.6.9.1
# Normalized: r0:TDELIM( - )
#
DISCID=0210f513
DTITLE=Various Artist - Texas Country Vol. I
DYEAR=1900
DGENRE=Country
TTITLE0=Beer, Bait and Ammo - Kevin Fowler
TTITLE1=Carry On - Pat Green
TTITLE2=The Preacher - Cory Morrow
TTITLE3=Hey Senorita - Mark Winston Kirk
TTITLE4=Girl Talk - Tracie Lynn
TTITLE5=I Don't Need No Woman Like That - Bobby Boyd
TTITLE6=Speak Of The Devil - Kevin Flower
TTITLE7=Heaven Tonight - Haydn Vitera
TTITLE8=Here I Go Again - Mark Winston Kirk
TTITLE9=The Bottle - Pauline Reese
TTITLE10=Take Me Out To A Dancehall - Pat Green
TTITLE11=Just The Thought - Rick Hertless
TTITLE12=Fine Line - Bobby Boyd
TTITLE13=He's Got A Way - Tracie Lynn
TTITLE14=Light On The Stage - Cory Morrow
TTITLE15=The Fall - Chris Sears
TTITLE16=Language Of Love - Haydn Vitera
TTITLE17=Hey Heart - Rick Hertless
TTITLE18=I Fell In Love - Kings Of The Motel 6
EXTD=
EXTT0=
EXTT1=
EXTT2=
EXTT3=
EXTT4=
EXTT5=
EXTT6=
EXTT7=
EXTT8=
EXTT9=
EXTT10=
EXTT11=
EXTT12=
EXTT13=
EXTT14=
EXTT15=
EXTT16=
EXTT17=
EXTT18=
PLAYORDER=
